<svg xmlns="http://www.w3.org/2000/svg" width="79" height="79"><g fill="none" fill-rule="evenodd"><path fill="#F40027" d="M20.122 3.2H4.354a1.32 1.32 0 00-1.316 1.424L7.073 55.46h13.049V3.199zm54.096 0H58.45v52.26h13.049l4.035-50.836a1.32 1.32 0 00-1.316-1.425"/><path fill="#231F20" d="M74.893 1.172a2.717 2.717 0 012.712 2.93l-5.65 71.225a2.718 2.718 0 01-2.713 2.501H9.33c-1.42 0-2.6-1.089-2.712-2.5L.967 4.1a2.717 2.717 0 012.712-2.929h71.214zm0-.958H3.68A3.68 3.68 0 00.012 4.178l5.65 71.225a3.695 3.695 0 003.668 3.383h59.912a3.696 3.696 0 003.668-3.383l5.65-71.226a3.681 3.681 0 00-.963-2.78A3.691 3.691 0 0074.893.214z"/><path fill="#231F20" d="M46.691 63.745a.358.358 0 01-.356-.397.987.987 0 00.005-.048c.058-.892-.248-1.415-1.25-1.415l-3.098.003-.828 3.776H45.6c.228 0 .398.212.348.434l-.432 1.947a.356.356 0 01-.348.28h-4.594s-.51 2.313-.529 2.413c-.17.746.34 1.134.682 1.3.018.01.035.017.053.025a.338.338 0 01.192.383l-.236 1.064a.355.355 0 01-.346.278h-5.403a.355.355 0 01-.346-.431l2.353-10.662c.24-.94-.31-1.323-.706-1.474l-.04-.015a.371.371 0 01-.238-.43l.208-.939a.39.39 0 01.38-.305h12.011c.228 0 .398.211.348.434l-.777 3.5a.356.356 0 01-.347.28h-1.142m-18.065-3.91a.386.386 0 01.377-.304h5.873c.23 0 .4.212.35.436l-.2.902a.36.36 0 01-.316.28 8.877 8.877 0 01-.045.004c-.442.059-1.241.203-1.896.715l-4.883 4.06v.002l3.757 5.085c.728.937 1.088 1.106 1.82 1.118a.38.38 0 01.36.464l-.204.914a.353.353 0 01-.345.276h-2.926c-3.24 0-4.135-1.42-6.834-6.355h-.002l-.788 3.6c-.12.559.349.855.692.995l.044.017a.357.357 0 01.218.41l-.233 1.056a.354.354 0 01-.346.277h-6.78a.373.373 0 01-.365-.453l.2-.902a.39.39 0 01.339-.305l.02-.002c.621-.072 1.273-.465 1.675-2.387l1.538-7.04c.198-.937-.271-1.294-.676-1.452a2.22 2.22 0 00-.064-.023.385.385 0 01-.251-.447l.209-.94a.388.388 0 01.379-.305h6.45c.225 0 .392.209.344.43l-.206.927a.387.387 0 01-.263.286l-.05.015c-.301.098-.779.346-.925.947l-.86 3.918c0 .001.002.002.003.001l5.003-4.158c.3-.247.223-.578-.12-.71h-.003a.39.39 0 01-.268-.46l.198-.893m33.698-.007a.417.417 0 01.296.493l-.76 3.425a.357.357 0 01-.349.279h-1.083a.357.357 0 01-.356-.376 1.92 1.92 0 00.003-.063c.052-1.117-.653-1.952-2.249-1.951-2.653 0-4.582 2.177-4.835 5.037-.261 2.952 1.802 4.668 4.66 4.668 1.465 0 2.625-.283 3.275-.489a.358.358 0 01.459.408l-.336 1.77a.418.418 0 01-.284.32c-.585.187-2.23.625-4.746.625-5.979.001-8.405-3.438-8.03-6.944.335-3.122 2.4-7.72 10.545-7.722 1.56 0 2.808.25 3.79.52M52.048 23.88c-.322 1.714-.683 2.574-.914 3.631-.24 1.1-.713 2.707-1.17 2.749-.464.139-.65-.396-.947 0-.178.236-.315.547-.473.749-.1.131-.2.425-.201.585 0 .31-.017 1.308-.294 2.618-.417 1.977-1.176 3.418-1.964 4.327-1.51 1.74-2.923 2.021-3.091 2.11-.216.114-.544.047-.651-.005-.109-.05-.192-.18-.378-.362-.193-.18-.26.094-.267.164-.008.065.098.889-.112 1.261-.453.802-.888.872-1.13 1.87-.082.337-.025.846-.428.616-.984-.563-2.395-2.085-2.687-3.561-.088-.45-.005-.95.269-1.806.158-.501.27-1.06.27-1.381 0-.57-.222-1.055 0-1.104.414-.092.602.978.794.867.334-.192.086-1.322.086-1.322s-.137-.321-.722-.458c-.337-.08-.443-.332-.084-.508.268-.131.58-.304.943-.25 2.427.344 3.125-.144 4.107-.409.193-.05.306-.073.457-.002.15.07.553.29.635.497.083.205-.003 1.01.126 1.617.13.608.558.055.665-.185.107-.239.217-.828.24-.977.023-.15.148-.775.373-.962.444-.37.6-.854.672-1.044.074-.19.19-.776.17-1.631-.022-.854-.176-.947-.383-1.13-.203-.183-.448-.148-.968-.624-.464-.425-.845-1.113-1.18-1.545-.337-.432-.895-.896-1.532-1.051-.634-.153-.37.431-.336.596.026.116.175.635-.036.806-.207.17-1.49 1.033-2.634.734-1.363-.356-1.835-1.115-1.863-1.849-.02-.52.23-1.02.54-1.616.182-.348.255-.93.328-1.487.059-.446.178-1.091.275-1.32.07-.166.234-.346.604-.325.366.02.606.203.673.519.237 1.096.623 1.374.754 1.462.133.089.38-.088.477-.153.097-.063.346-.314.268-.449-.119-.208-.184-.333-.21-.455-.046-.209.216-.184.268-.142.428.337.83.366 1.57.49 1.291.215 1.476-.261 2.364-.107.115.02.334.116.406.249.058.114.166.376.275.422.107.042.37.058.507.082.188.032.524.011.467.358-.144.93-1.218 1.187-1.72 1.273-.207.036-.302.053-.335.083-.11.095-.113.386.012.575.089.132.494.14 1.05.034.58-.111 1.136-.391 1.575-1.076.466-.725.722-2.322.776-2.62.052-.299.172-.798.336-.9.162-.102.918-.332 1.025-.313.127.022.22.083.279.376.06.295-.052 2.055-.054 2.32-.003.283.142.28.223.244.177-.082.647-.395.754-.758.079-.269-.148-.66-.034-1.033.177-.58.352-.734.473-.722.737.07.888.393.712 1.33m-10.456 9.49c-.274.1-1.066.284-1.45.307-.386.022-1.613.105-1.819.095a1.491 1.491 0 01-.872-.391c-.056-.052-.116-.229.11-.233.42-.007 1.131-.232 3.577-.025.262.022.386.033.448.04.064.006.28.11.006.206m-6.016-.993c-1.19-.015-1.741-.459-1.827-.591-.081-.129.056-.228.18-.268.281-.09.781-.342.984-.496.203-.152.765-.501 1.048-.684.133-.087.899-.42 1.346-.108.672.469 1.3.782 2.449.712.739-.045.722-.642 1.324-.832.543-.171.648-.304.818-.404.22-.044.381-.1.62.122.301.282.41.503.76.898.478.54 1.005.791 1.168.823.163.033.28.165.281.22.002.053-.065.221-.547.36-1.61.46-3.352.165-4.249-.194-.455-.182-.898-.231-1.397.014-.504.247-1.846.441-2.958.428m-.572 6.619c-.912.028-3.296-1.411-4.337-5.496-.27-1.05.393-1.903.804-2.05.243-.089.37-.117.453-.128.084-.01.5-.008.485.461-.015.38.301 3.548 1.128 4.694.205.285.395.295.489.044.086-.233.23-.534.276-.648.034-.083.335-.543.424-.194.19.742.634 2.27.821 2.663.31.654-.201.643-.543.654m-4.793-12.19c-.064-.274.059-.686.706-.27.104.066.409.204.747.301.205.06.337-.027.395-.176.06-.147.228-.442-.06-.583-.287-.144-.997-.267-1.402-1.265-.073-.178.05-.383.164-.435.115-.052.257-.026.39.1.132.124.415.397.668.407.234.011.272-.084.32-.139.196-.22.758-1.042 1.925-.9.48.06.924.166 1.086.178.116.008.436.022.742-.035.35-.066.87-.174.616.12-.208.24-.381.34-.2.6l.028.038a.656.656 0 01.002.767l-.02.029c-.258.335-.791.72-1.893.79-.502.032-.534.014-.544.3a.934.934 0 00.013.247c.03.144.123.204.471.226.253.016.715-.034.716-.034.114-.034.248.038.175.133-.012.014-.058.083-.066.094a1.66 1.66 0 00-.351.795.46.46 0 01-.238.351l-.006.003c-.16.083-.81.223-1.322.645-.51.423-1.574.771-2.032.252-.458-.518-.83-1.676-1.03-2.538m-.33-5.117c-.144.015-.265-.072-.422-.106-.18-.04-.292.016-.367-.084-.066-.103-.054-.2.05-.239.103-.039.178-.01.283-.03.213-.04.472-.284.664-.014.124.176.017.448-.209.473m-1.768 6.491c-.46-.306-.435-.707-.552-1.102-.248-.837-.515-1.845-.746-2.703-.14-.518-.175-1.734.529-1.734.354 0 .618.111.732.445.252.743-.223.614-.101 1.492.086.62.205 1.232.4 2.287.09.486.25 1.656-.178 1.371m-1.438-11.985c.256-.694.722-1.286 1.04-1.703.292-.382.155-.886.005-1.338-.096-.416-.363-.847-.404-.96-.03-.08-.03-.144-.005-.2a2.18 2.18 0 01.054-.037l.564-.048c1.612-.206 3.034-.772 3.463-1.013.212-.119.436-.212.666-.29a4.43 4.43 0 01.826-.22c.211-.034.46-.067.674-.09.32-.036.823.187.711.253-.27.162-1.522.452-2.625 1.767-.675.805-.832 1.303-1.06 1.673-.23.372-.415.46-.739.74-.158.136-.482.42-.64.87-.16.455-.775 2.042-.855 4.562-.01.293-.06.602-.337.708h-.003c-.227.093-.412.243-.45.08-.146-.554-.485-1.747-.627-2.503a14.883 14.883 0 00-.154-.71c-.155-.644-.225-1.215-.104-1.541m4.902 6.129c-.293.186-.58.4-.799.542-.266.176-.641.008-.532-.366.054-.182.312-.648.746-.73.057-.011.272-.052.452-.074.21-.022.433-.041.547-.046.307-.014.34.233.133.36-.139.085-.352.19-.547.314m.405.55c.078-.064.113-.064.377-.21.188-.104.403-.232.62-.373.392-.255 1.136-.52 1.452-.516.228.003.626.101.838.332.222.242.282.523-.007.474-.286-.05-.59-.127-1.14 0-.617.14-1.036.377-1.333.51a1.82 1.82 0 01-.714.17c-.098-.007-.378-.156-.093-.387m4.551 5.459a.817.817 0 01.075.446c-.021.113-.416.26-.745-.232-.328-.488-.174-1.088.021-1.324.31-.378.782-.103.714.037-.236.485-.131.942-.065 1.073m9.855-4.792c-.12.06-.577-.092-.703-.163-.252-.141-.431-.241-.77-.531-.226-.19-.636-.28-1.025-.261a4.688 4.688 0 00-.821.131c-.225.055-.243-.15-.175-.227.067-.077.383-.367 1.073-.547.1-.027.294-.018.392-.007.288.032.632.223.88.464.247.242.748.669 1.02.834.128.077.415.16.13.307m-.282-1.141s-.427-.291-.563-.528c-.068-.117-.052-.215.128-.216.64-.007 1.225-.022 1.51.217.208.174.214.539.112.774-.118.27-.352.193-.486.174-.134-.02-.701-.421-.701-.421m3.206-.957c-.097.105-.183.041-.383.091-.155.038-.259.126-.402.113-.226-.02-.338-.29-.217-.468.187-.274.451-.036.664.002.105.018.18-.013.284.024.104.038.118.134.054.238M30.959 9.109c.098-.151.335-.372.572-.543.248-.178 1.47-1.093 2.605-1.439.21-.062.264-.094.398-.126.17-.044.315-.411-.04-.464-.371-.054-.523-.03-.72-.023-.199.004-.294-.102-.15-.258.146-.157.409-.317.871-.502 1.01-.403 2.801-.618 3.636-.692 1.09-.094 1.222-.09 1.93-.036.665.05 1.186.174 1.432.217 1.25.227 2.691.806 3.972 1.509.674.4 1.324.846 1.929 1.318 1.835 1.43 3.942 4.151 3.635 9.882-.037.677-.117 1.052-.161 1.215-.046.166-.266.45-.382.075-.379-1.227-.867-3.388-1.976-5.094-.155-.238-.393-.216-.37.034.01.105.06 1.198.034 1.41-.18 1.407.251.859.887 2.37.196.466.45 1.39.513 1.986.016.15.037.323.04.49.005.21-.1.224-.1.224-.434-.001-1.192-.208-1.601-.22-.465-.015-3.692-.048-4.905.048-1.213.092-1.875.529-2.562 1.091a2.15 2.15 0 01-.368.227.237.237 0 01-.147.02 9.108 9.108 0 01-.29-.056c-.296-.06-.655-.085-.944.004-.29.086-.426.16-.738-.02-.446-.26-1.128-1.3-3.51-1.319-1.35-.01-3.122-.029-4.164.017-.337.015-.513.053-.6.05a.803.803 0 01-.008-.105c-.018-1.902 1.223-1.48 1.366-1.975.354-1.232.437-4.196 2.59-6.016 1.028-.87 1.563-.906 2.518-.906 1.029 0 2.033.269 2.545.522.407.201.609.336.77.218.159-.122.587-.51.764-.644.177-.136.11-.347-.057-.485-.161-.13-1.688-2.05-4.028-2.438-.536-.089-.932-.17-1.42-.172-.263-.01-.496-.01-1.108.064-.896.108-2.067.607-2.82.906-.04-.043.115-.296.162-.364m-.773 26.686c.023.983.593 3.577 3.888 6.04a132.073 132.073 0 002.186 1.614l-.001.008c.09.063-.487.048-.646.064-.258.024-1.137-.055-1.84.075-.635.117-.549.27-.612.729-.05.364-.003.94-.021 1.432-.02.492-.046.84.162 1.079.205.234.335.271 1.206.217.829-.05 3.123-.052 3.399-.108.355-.073.298.056.094.495-.35.752-1.493 4.2-3.269 7.476-.249.458.451.241 1.048.53 1.08.52 1.045.665 1.329.122.307-.589 1.866-4.257 2.107-5.389.031-.148.094-.276.119-.054.017.16.04 4.793-.09 6.255a.27.27 0 00.067.214c.078.08.195.113.295.136h.003c.537-.179 1.186-.31 1.738-.22a.782.782 0 00.14-.03.313.313 0 00.075-.088.937.937 0 00.089-.273 3.508 3.508 0 00.08-.596 14.756 14.756 0 00.022-.64 25.568 25.568 0 00-.001-.854c-.003-.164-.007-.11-.011-.273a39.417 39.417 0 00-.189-2.854 32.013 32.013 0 00-.151-1.206c-.03-.197-.06-.394-.095-.591-.034-.192-.07-.275-.109-.466a16.28 16.28 0 00-.123-.553 12.285 12.285 0 00-.266-.935 1.415 1.415 0 01-.04-.234c.014-.068.099-.02.192-.037l.068-.012c.59-.08 1.616-.027 1.848-.017.228.007 1.395.118 1.724.148.326.031.723.107.705-.883a30.484 30.484 0 01-.004-.669v-.1l.002-.183.002-.104v-.1l.002-.09.005-.152c0-.015 0-.028.002-.042a2.231 2.231 0 01.005-.144l.004-.072.002-.022a1.58 1.58 0 00.005-.097c.008-.241-.023-.684-.481-.802-.528-.132-1.455-.164-2.289-.091-.116.01-.142 0-.106-.033v-.007c.18-.128 1.384-.793 2.761-2.026 1.515-1.359 2.238-2.081 2.701-3.065 0 0 1.658-3.216 1.575-5.94-.017-.55.072-.504.414-.494.103.003.495-.025.706-.164.703-.16 1.324-2.562 1.324-2.562s1.057-3.646 1.313-5.137c.227-1.327.173-2.102-.636-2.496l-.135-.076a.153.153 0 01-.073-.174 1.98 1.98 0 00.04-.172c.396-1.374 1.103-3.113.943-3.818-.028-.203-.2-.268-.259-.309-.082-.056-.396-.405-.483-.651a.437.437 0 01-.021-.111c-.223-2.595-1.145-5.85-3.892-8.685-.004-.002-.188-.172-.301-.275a12.832 12.832 0 00-.882-.734c-.731-.547-1.315-.967-2.518-1.567-.092-.046-.996-.457-2.33-.783a11.605 11.605 0 00-.378-.096 9.92 9.92 0 00-.852-.15 12.459 12.459 0 00-2.685-.14 10.54 10.54 0 01-.28.013l-.174.006-.195.007a8.57 8.57 0 00-.744.08c-.449.065-.93.154-1.228.224-.332.08-.78.174-1.34.335-.229.067-.46.138-.69.213l-.194.061c-.249.082-.498.167-.751.258a27.36 27.36 0 00-1.13.479 7.346 7.346 0 01-.314.135c-.549.174-.664.49-.684.665a1.045 1.045 0 01-.086.325c-.79 1.68-2.65 1.843-3.388 1.88-.193.01-.364.037-.303.225.158.482 1.027 1.382 1.56 1.545-.008.077-.456.174-.55.2-.215.055-1.096-.022-1.14-.014l-.01.002c-1 .084-1.306.764-1.396 1.087a.36.36 0 00.046.295c.22.336.452.61.627 1.053l.006.015c.045.116.087.245.123.39.021.19.173.388-.02.76-.34.66-1.192.868-1.32 1.524-.18.932.141 1.543.494 3.085.242 1.057.504 2.15.691 2.645a.043.043 0 01-.033.059 3.02 3.02 0 00-.248.056c-.493.196-.648.585-.705 1.344-.124 1.68 1.117 4.272 1.501 6.493.13.749.475 1.95 1.05 2.441.132.114.41.187.581.216.45.078.644-.206.67.245.005.094.037.347.041.49.077 1.593.932 3.175.932 3.175"/></g></svg>